<?xml version="1.0" encoding="UTF-8"?>
<svg width="24px" height="24px" viewBox="0 0 24 24" version="1.1" xmlns="http://www.w3.org/2000/svg" xmlns:xlink="http://www.w3.org/1999/xlink">
    <g id="icon-/-card-date" stroke="none" stroke-width="1" fill="none" fill-rule="evenodd">
        <path d="M3,23 L21,23 C22.1045695,23 23,22.1045695 23,21 L23,5 C23,3.8954305 22.1045695,3 21,3 L3,3 C1.8954305,3 1,3.8954305 1,5 L1,21 C1,22.1045695 1.8954305,23 3,23 Z" id="Stroke-40" stroke="#2F3132" stroke-width="2"></path>
        <path d="M1,7 L23,7 L23,3 C23,1.8954305 22.1045695,1 21,1 L3,1 C1.8954305,1 1,1.8954305 1,3 L1,7 Z" id="Stroke-40" stroke="#2F3132" stroke-width="2" fill="#FC5770"></path>
        <rect id="Rectangle-5-Copy-3" fill="#2F3132" x="17" y="11" width="2" height="3" rx="1"></rect>
        <rect id="Rectangle-5-Copy-6" fill="#2F3132" x="11" y="11" width="2" height="3" rx="1"></rect>
        <rect id="Rectangle-5-Copy-8" fill="#2F3132" x="5" y="11" width="2" height="3" rx="1"></rect>
        <rect id="Rectangle-5-Copy-4" fill="#2F3132" x="17" y="16" width="2" height="3" rx="1"></rect>
        <rect id="Rectangle-5-Copy-7" fill="#2F3132" x="11" y="16" width="2" height="3" rx="1"></rect>
        <rect id="Rectangle-5-Copy-7" fill="#2F3132" x="5" y="16" width="2" height="3" rx="1"></rect>
    </g>
</svg>