<?xml version="1.0" encoding="UTF-8"?>
<svg width="24px" height="24px" viewBox="0 0 24 24" version="1.1" xmlns="http://www.w3.org/2000/svg" xmlns:xlink="http://www.w3.org/1999/xlink">
    <g id="icon-/-card-center" stroke="none" stroke-width="1" fill="none" fill-rule="evenodd">
        <path d="M17,21 L21,21 C22.1045695,21 23,20.1045695 23,19 L23,11 C23,9.8954305 22.1045695,9 21,9 L17,9" id="Stroke-46" stroke="#2C3136" stroke-width="2" fill="#FC5770"></path>
        <path d="M15,23 L3,23 C1.8954305,23 1,22.1045695 1,21 L1,3 C1,1.8954305 1.8954305,1 3,1 L15,1 C16.1045695,1 17,1.8954305 17,3 L17,21 C17,22.1045695 16.1045695,23 15,23 Z" id="Stroke-47" stroke="#2C3136" stroke-width="2"></path>
        <rect id="Rectangle-5-Copy" fill="#2C3136" x="5" y="4" width="2" height="3" rx="1"></rect>
        <rect id="Rectangle-5-Copy" fill="#2C3136" x="5" y="10" width="2" height="3" rx="1"></rect>
        <rect id="Rectangle-5-Copy" fill="#2C3136" x="5" y="16" width="2" height="3" rx="1"></rect>
        <rect id="Rectangle-5-Copy" fill="#2C3136" x="11" y="4" width="2" height="3" rx="1"></rect>
        <rect id="Rectangle-5-Copy" fill="#2C3136" x="11" y="10" width="2" height="3" rx="1"></rect>
        <rect id="Rectangle-5-Copy" fill="#2C3136" x="11" y="16" width="2" height="3" rx="1"></rect>
    </g>
</svg>