<?xml version="1.0" encoding="UTF-8"?>
<svg width="24px" height="24px" viewBox="0 0 24 24" version="1.1" xmlns="http://www.w3.org/2000/svg" xmlns:xlink="http://www.w3.org/1999/xlink">
    <g id="icon-/-card-treatment-" stroke="none" stroke-width="1" fill="none" fill-rule="evenodd" stroke-linecap="round" stroke-linejoin="round">
        <path d="M15.1473134,16 L20.3130622,10.8342512 C22.5623126,8.58500074 22.5623126,4.93746412 20.3130622,2.68693785 C18.0625359,0.437687384 14.4162751,0.437687384 12.1657488,2.68693785 L7,7.85268664 L15.1473134,16 Z" id="Stroke-1" stroke="#2C3136" stroke-width="2" fill="#FC5770"></path>
        <path d="M7.85268664,7 L2.68693785,12.1645828 C0.437687384,14.4151569 0.437687384,18.0627711 2.68693785,20.3120694 C4.93746412,22.5626435 8.58500074,22.5626435 10.8342512,20.3120694 L16,15.1474866 L7.85268664,7 Z" id="Stroke-3" stroke="#2C3136" stroke-width="2" fill="#FFFFFF"></path>
        <path d="M7,17 L7,21.2370476 C7,22.2111427 10.5817912,23 14.9993753,23 C19.4169595,23 23,22.2111427 23,21.2370476 L23,17 L7,17 Z" id="Stroke-7" stroke="#2C3136" stroke-width="2" fill="#FFFFFF"></path>
        <path d="M23,17 C23,18.1050725 19.4182088,19 15.0006247,19 C10.5830405,19 7,18.1050725 7,17 C7,15.8949275 10.5830405,15 15.0006247,15 C19.4182088,15 23,15.8949275 23,17 Z" id="Stroke-5" stroke="#2C3136" stroke-width="2" fill="#FFFFFF"></path>
    </g>
</svg>