<svg version="1.1" xmlns="http://www.w3.org/2000/svg" xmlns:xlink="http://www.w3.org/1999/xlink" width="98" height="69" viewBox="0 0 98 69"><defs><filter id="Ellipse-1-fx" filterUnits="userSpaceOnUse"><feFlood flood-color="#303030" flood-opacity="1.000"/><feComposite operator="in" in2="SourceGraphic"/><feBlend mode="normal" in2="SourceGraphic" result="colorOverlay"/></filter></defs><path id="Ellipse-1" d="M93.875,57.312 C91.666,57.312 89.875,55.522 89.875,53.312 C89.875,51.103 91.666,49.312 93.875,49.312 C96.084,49.312 97.875,51.103 97.875,53.312 C97.875,55.522 96.084,57.312 93.875,57.312 zM89.839,33.387 C88.223,37.039 84.119,40.838 79.773,44.859 C74.532,49.709 69.112,54.724 66.967,60.249 C66.949,60.294 66.928,60.342 66.905,60.392 C66.818,60.582 66.804,60.640 66.847,60.722 C67.668,61.519 75.111,58.282 78.305,56.893 C83.099,54.808 83.628,54.640 83.993,55.096 C84.296,55.475 84.723,56.358 84.919,59.642 C84.919,59.642 84.925,59.747 84.925,59.747 C84.925,59.747 84.884,59.844 84.884,59.844 C84.648,60.409 84.312,60.769 83.885,60.916 C73.941,65.366 66.414,68.238 62.729,68.987 C62.729,68.987 62.665,69.000 62.665,69.000 C62.665,69.000 62.600,68.994 62.600,68.994 C61.838,68.929 60.891,68.710 60.497,68.369 C60.193,68.102 59.962,67.742 59.807,67.294 C59.604,66.710 59.546,66.004 59.632,65.195 C59.716,64.425 59.860,63.693 60.060,63.017 C60.312,62.237 60.642,61.427 61.045,60.599 C64.881,52.936 70.872,47.372 77.215,41.482 C79.328,39.520 81.513,37.491 83.649,35.351 C83.903,34.936 83.952,34.499 83.769,34.275 C83.568,34.031 82.949,33.933 81.813,34.388 C81.813,34.388 72.227,39.911 72.227,39.911 C72.176,39.947 64.240,45.322 58.915,48.210 C57.817,48.948 56.677,49.524 55.470,50.134 C54.723,50.511 53.951,50.901 53.175,51.341 C50.850,52.660 48.672,53.846 46.702,54.867 C44.840,55.827 42.959,56.718 41.095,57.525 C41.095,57.525 41.065,57.570 41.065,57.570 C40.662,58.124 33.938,61.162 29.529,59.486 C26.556,58.356 25.273,55.449 25.714,50.843 C25.764,50.318 25.789,49.806 25.814,49.308 C25.854,48.521 25.891,47.777 26.017,47.054 C26.269,45.586 26.309,45.239 26.310,45.163 C26.310,45.029 26.293,44.953 26.281,44.914 C24.860,45.249 22.931,46.490 20.545,48.604 C18.045,50.819 15.498,53.258 12.975,55.854 C10.048,58.928 6.916,62.412 3.667,66.205 C3.442,66.428 3.298,66.544 3.175,66.609 C3.138,66.628 3.098,66.652 3.049,66.703 C2.832,66.916 2.624,66.959 2.486,66.959 C1.358,66.761 0.656,66.089 0.374,65.011 C0.045,63.753 0.000,63.439 0.000,63.286 C0.000,62.665 0.206,61.831 0.628,60.738 C1.031,59.694 1.561,58.536 2.204,57.294 C2.842,56.061 3.590,54.710 4.427,53.280 C5.266,51.846 6.123,50.413 7.003,48.979 C9.069,45.732 11.405,42.198 13.951,38.470 C16.478,34.691 19.110,30.623 21.775,26.382 C24.434,22.149 26.866,18.161 29.003,14.531 C31.547,10.250 33.957,5.965 36.169,1.791 C36.379,1.471 36.656,1.193 37.016,0.924 C37.416,0.717 37.839,0.536 38.380,0.328 C38.952,0.110 39.751,-0.000 40.754,-0.000 C41.460,0.085 41.988,0.168 42.396,0.247 C43.009,0.370 43.360,0.793 43.360,1.408 C43.360,1.814 43.254,2.180 43.045,2.494 C41.538,4.946 39.862,7.650 38.029,10.591 C36.438,13.127 34.525,16.059 32.340,19.307 C30.136,22.583 27.699,26.077 25.096,29.691 C22.898,32.744 20.808,35.710 18.884,38.506 C17.320,40.842 15.713,43.306 14.109,45.825 C12.562,48.251 11.458,50.192 10.825,51.595 C13.999,48.746 17.007,46.187 19.783,43.974 C20.982,43.018 22.180,42.083 23.378,41.167 C24.590,40.242 25.745,39.414 26.811,38.705 C27.897,37.983 28.899,37.392 29.789,36.948 C30.741,36.475 31.511,36.245 32.144,36.245 C32.653,36.245 33.228,36.306 33.901,36.431 C34.668,36.575 35.213,36.907 35.521,37.418 C35.521,37.418 35.586,37.526 35.586,37.526 C35.586,37.526 35.586,37.653 35.586,37.653 C35.586,38.026 35.495,38.444 35.314,38.895 C35.156,39.287 34.980,39.774 34.786,40.360 C34.578,40.979 34.268,41.700 33.864,42.506 C33.227,43.619 32.671,44.726 32.201,45.821 C31.813,46.747 31.457,47.792 31.145,48.921 C30.838,50.027 30.683,51.089 30.683,52.079 C30.683,53.042 30.829,53.839 31.118,54.447 C31.353,54.948 32.020,55.202 33.101,55.202 C33.700,55.202 34.490,55.085 35.447,54.856 C36.423,54.622 37.710,54.188 39.271,53.565 C41.525,52.558 43.974,51.397 46.532,50.122 C46.532,50.122 47.067,49.846 47.067,49.846 C49.045,48.826 51.288,47.669 53.616,46.265 C54.205,45.910 54.805,45.582 55.298,45.320 C55.298,45.320 55.303,45.230 55.303,45.230 C55.303,45.230 55.490,45.105 55.490,45.105 C58.062,43.385 80.453,28.499 84.969,28.499 C85.009,28.499 85.047,28.500 85.084,28.503 C87.126,28.193 88.517,28.454 89.332,29.303 C90.418,30.431 90.080,32.188 89.879,33.238 C89.879,33.238 89.839,33.387 89.839,33.387 z" fill="#FFFFFF" filter="url(#Ellipse-1-fx)" /></svg>